<mxfile host="app.diagrams.net" agent="Mozilla/5.0 (Windows NT 10.0; Win64; x64) AppleWebKit/537.36 (KHTML, like Gecko) Chrome/137.0.0.0 Safari/537.36" version="27.1.6">
  <diagram name="Trang-1" id="9W58HOvFIoTuiHD2CE84">
    <mxGraphModel dx="1650" dy="608" grid="0" gridSize="10" guides="1" tooltips="1" connect="1" arrows="1" fold="1" page="0" pageScale="1" pageWidth="827" pageHeight="1169" math="0" shadow="0">
      <root>
        <mxCell id="0" />
        <mxCell id="1" parent="0" />
        <mxCell id="HB28VMsp4Vt5agekkU91-75" style="edgeStyle=orthogonalEdgeStyle;rounded=0;orthogonalLoop=1;jettySize=auto;html=1;" edge="1" parent="1" source="HB28VMsp4Vt5agekkU91-71" target="HB28VMsp4Vt5agekkU91-6">
          <mxGeometry relative="1" as="geometry">
            <Array as="points">
              <mxPoint x="495" y="824" />
            </Array>
          </mxGeometry>
        </mxCell>
        <mxCell id="HB28VMsp4Vt5agekkU91-79" value="&lt;b style=&quot;font-size: 17px;&quot;&gt;Allow access&lt;/b&gt;" style="edgeLabel;html=1;align=center;verticalAlign=middle;resizable=0;points=[];" vertex="1" connectable="0" parent="HB28VMsp4Vt5agekkU91-75">
          <mxGeometry x="-0.334" y="-3" relative="1" as="geometry">
            <mxPoint x="-8" y="3" as="offset" />
          </mxGeometry>
        </mxCell>
        <mxCell id="HB28VMsp4Vt5agekkU91-76" style="edgeStyle=orthogonalEdgeStyle;rounded=0;orthogonalLoop=1;jettySize=auto;html=1;entryX=0.5;entryY=1;entryDx=0;entryDy=0;exitX=1;exitY=0.5;exitDx=0;exitDy=0;exitPerimeter=0;" edge="1" parent="1" source="HB28VMsp4Vt5agekkU91-71" target="HB28VMsp4Vt5agekkU91-30">
          <mxGeometry relative="1" as="geometry">
            <Array as="points">
              <mxPoint x="1165" y="843" />
            </Array>
          </mxGeometry>
        </mxCell>
        <mxCell id="HB28VMsp4Vt5agekkU91-78" value="&lt;b style=&quot;font-size: 17px;&quot;&gt;Allow access&lt;/b&gt;" style="edgeLabel;html=1;align=center;verticalAlign=middle;resizable=0;points=[];" vertex="1" connectable="0" parent="HB28VMsp4Vt5agekkU91-76">
          <mxGeometry x="-0.2087" y="-2" relative="1" as="geometry">
            <mxPoint x="-27" y="-1" as="offset" />
          </mxGeometry>
        </mxCell>
        <mxCell id="HB28VMsp4Vt5agekkU91-71" value="&lt;font style=&quot;color: light-dark(rgb(255, 255, 255), rgb(255, 255, 255));&quot;&gt;&lt;span style=&quot;font-size: 14px;&quot;&gt;&lt;b style=&quot;&quot;&gt;IAM&lt;/b&gt;&lt;/span&gt;&lt;/font&gt;" style="sketch=0;points=[[0,0,0],[0.25,0,0],[0.5,0,0],[0.75,0,0],[1,0,0],[0,1,0],[0.25,1,0],[0.5,1,0],[0.75,1,0],[1,1,0],[0,0.25,0],[0,0.5,0],[0,0.75,0],[1,0.25,0],[1,0.5,0],[1,0.75,0]];outlineConnect=0;fontColor=#232F3E;fillColor=light-dark(#DD344C,#FF5965);strokeColor=#ffffff;dashed=0;verticalLabelPosition=bottom;verticalAlign=top;align=center;html=1;fontSize=12;fontStyle=0;aspect=fixed;shape=mxgraph.aws4.resourceIcon;resIcon=mxgraph.aws4.identity_and_access_management;" vertex="1" parent="1">
          <mxGeometry x="760" y="795" width="78" height="78" as="geometry" />
        </mxCell>
        <mxCell id="HB28VMsp4Vt5agekkU91-3" style="edgeStyle=orthogonalEdgeStyle;rounded=0;orthogonalLoop=1;jettySize=auto;html=1;exitX=0.995;exitY=0.63;exitDx=0;exitDy=0;exitPerimeter=0;" edge="1" parent="1" source="HB28VMsp4Vt5agekkU91-1" target="HB28VMsp4Vt5agekkU91-2">
          <mxGeometry relative="1" as="geometry" />
        </mxCell>
        <mxCell id="HB28VMsp4Vt5agekkU91-4" value="Request" style="edgeLabel;html=1;align=center;verticalAlign=middle;resizable=0;points=[];fontSize=17;" vertex="1" connectable="0" parent="HB28VMsp4Vt5agekkU91-3">
          <mxGeometry x="-0.0369" relative="1" as="geometry">
            <mxPoint x="-14" as="offset" />
          </mxGeometry>
        </mxCell>
        <mxCell id="HB28VMsp4Vt5agekkU91-1" value="USER" style="aspect=fixed;sketch=0;html=1;dashed=0;whitespace=wrap;verticalLabelPosition=bottom;verticalAlign=top;fillColor=#2875E2;strokeColor=#ffffff;points=[[0.005,0.63,0],[0.1,0.2,0],[0.9,0.2,0],[0.5,0,0],[0.995,0.63,0],[0.72,0.99,0],[0.5,1,0],[0.28,0.99,0]];shape=mxgraph.kubernetes.icon2;prIcon=user" vertex="1" parent="1">
          <mxGeometry x="-11" y="118" width="50" height="48" as="geometry" />
        </mxCell>
        <mxCell id="HB28VMsp4Vt5agekkU91-24" style="edgeStyle=orthogonalEdgeStyle;rounded=0;orthogonalLoop=1;jettySize=auto;html=1;entryX=0.25;entryY=0;entryDx=0;entryDy=0;exitX=0.5;exitY=1;exitDx=0;exitDy=0;" edge="1" parent="1" source="HB28VMsp4Vt5agekkU91-2" target="HB28VMsp4Vt5agekkU91-6">
          <mxGeometry relative="1" as="geometry">
            <mxPoint x="473.76469152113987" y="170.76474178538604" as="targetPoint" />
            <Array as="points">
              <mxPoint x="250" y="171" />
              <mxPoint x="250" y="315" />
            </Array>
          </mxGeometry>
        </mxCell>
        <mxCell id="HB28VMsp4Vt5agekkU91-2" value="INTERNET" style="image;aspect=fixed;perimeter=ellipsePerimeter;html=1;align=center;shadow=0;dashed=0;spacingTop=3;image=img/lib/active_directory/internet_cloud.svg;" vertex="1" parent="1">
          <mxGeometry x="165" y="94" width="168.25" height="106" as="geometry" />
        </mxCell>
        <mxCell id="HB28VMsp4Vt5agekkU91-30" value="&lt;font style=&quot;color: light-dark(rgb(239, 240, 243), rgb(255, 255, 255)); font-size: 14px;&quot;&gt;&lt;b style=&quot;&quot;&gt;CloudWatch&lt;/b&gt;&lt;/font&gt;" style="fillColor=none;strokeColor=light-dark(#5A6C86, #ff81d9);verticalAlign=top;fontStyle=0;fontColor=#5A6C86;whiteSpace=wrap;html=1;" vertex="1" parent="1">
          <mxGeometry x="854" y="285" width="622" height="313" as="geometry" />
        </mxCell>
        <mxCell id="HB28VMsp4Vt5agekkU91-31" value="" style="sketch=0;points=[[0,0,0],[0.25,0,0],[0.5,0,0],[0.75,0,0],[1,0,0],[0,1,0],[0.25,1,0],[0.5,1,0],[0.75,1,0],[1,1,0],[0,0.25,0],[0,0.5,0],[0,0.75,0],[1,0.25,0],[1,0.5,0],[1,0.75,0]];points=[[0,0,0],[0.25,0,0],[0.5,0,0],[0.75,0,0],[1,0,0],[0,1,0],[0.25,1,0],[0.5,1,0],[0.75,1,0],[1,1,0],[0,0.25,0],[0,0.5,0],[0,0.75,0],[1,0.25,0],[1,0.5,0],[1,0.75,0]];outlineConnect=0;fontColor=#232F3E;fillColor=#E7157B;strokeColor=#ffffff;dashed=0;verticalLabelPosition=bottom;verticalAlign=top;align=center;html=1;fontSize=12;fontStyle=0;aspect=fixed;shape=mxgraph.aws4.resourceIcon;resIcon=mxgraph.aws4.cloudwatch_2;" vertex="1" parent="1">
          <mxGeometry x="854" y="285" width="57.00687285223368" height="57.00687285223368" as="geometry" />
        </mxCell>
        <mxCell id="HB28VMsp4Vt5agekkU91-56" style="edgeStyle=orthogonalEdgeStyle;rounded=0;orthogonalLoop=1;jettySize=auto;html=1;entryX=0.964;entryY=0.506;entryDx=0;entryDy=0;entryPerimeter=0;" edge="1" parent="1" source="HB28VMsp4Vt5agekkU91-34" target="HB28VMsp4Vt5agekkU91-33">
          <mxGeometry relative="1" as="geometry" />
        </mxCell>
        <mxCell id="HB28VMsp4Vt5agekkU91-57" value="&lt;font&gt;Querry&lt;/font&gt;" style="edgeLabel;html=1;align=center;verticalAlign=middle;resizable=0;points=[];fontSize=17;" vertex="1" connectable="0" parent="HB28VMsp4Vt5agekkU91-56">
          <mxGeometry x="-0.0989" y="3" relative="1" as="geometry">
            <mxPoint x="-4" y="-4" as="offset" />
          </mxGeometry>
        </mxCell>
        <mxCell id="HB28VMsp4Vt5agekkU91-58" style="edgeStyle=orthogonalEdgeStyle;rounded=0;orthogonalLoop=1;jettySize=auto;html=1;" edge="1" parent="1" source="HB28VMsp4Vt5agekkU91-34" target="HB28VMsp4Vt5agekkU91-35">
          <mxGeometry relative="1" as="geometry" />
        </mxCell>
        <mxCell id="HB28VMsp4Vt5agekkU91-59" value="Add to Dashboard" style="edgeLabel;html=1;align=center;verticalAlign=middle;resizable=0;points=[];fontSize=16;" vertex="1" connectable="0" parent="HB28VMsp4Vt5agekkU91-58">
          <mxGeometry x="-0.1178" y="1" relative="1" as="geometry">
            <mxPoint as="offset" />
          </mxGeometry>
        </mxCell>
        <mxCell id="HB28VMsp4Vt5agekkU91-34" value="&lt;span style=&quot;font-size: 14px; text-wrap-mode: wrap;&quot;&gt;Logs Insight&lt;/span&gt;" style="sketch=0;pointerEvents=1;shadow=0;dashed=0;html=1;strokeColor=none;fillColor=light-dark(#434445, #ff81d9);aspect=fixed;labelPosition=center;verticalLabelPosition=bottom;verticalAlign=top;align=center;outlineConnect=0;shape=mxgraph.vvd.vrealize_log_insight;" vertex="1" parent="1">
          <mxGeometry x="1123" y="389.75" width="64" height="64" as="geometry" />
        </mxCell>
        <mxCell id="HB28VMsp4Vt5agekkU91-35" value="&lt;span style=&quot;font-size: 14px; text-wrap-mode: wrap;&quot;&gt;Dashboard&lt;/span&gt;" style="sketch=0;pointerEvents=1;shadow=0;dashed=0;html=1;strokeColor=none;fillColor=light-dark(#434445,#00FF00);aspect=fixed;labelPosition=center;verticalLabelPosition=bottom;verticalAlign=top;align=center;outlineConnect=0;shape=mxgraph.vvd.nsx_dashboard;" vertex="1" parent="1">
          <mxGeometry x="1374" y="389.75" width="66.67" height="62" as="geometry" />
        </mxCell>
        <mxCell id="HB28VMsp4Vt5agekkU91-33" value="&lt;span style=&quot;font-size: 14px; text-wrap-mode: wrap;&quot;&gt;Log Group&lt;/span&gt;" style="aspect=fixed;sketch=0;html=1;dashed=0;whitespace=wrap;verticalLabelPosition=bottom;verticalAlign=top;fillColor=#2875E2;strokeColor=#ffffff;points=[[0.005,0.63,0],[0.1,0.2,0],[0.9,0.2,0],[0.5,0,0],[0.995,0.63,0],[0.72,0.99,0],[0.5,1,0],[0.28,0.99,0]];shape=mxgraph.kubernetes.icon2;prIcon=group" vertex="1" parent="1">
          <mxGeometry x="930" y="383.5" width="79.69" height="76.5" as="geometry" />
        </mxCell>
        <mxCell id="HB28VMsp4Vt5agekkU91-19" value="&lt;font style=&quot;color: light-dark(rgb(239, 240, 243), rgb(255, 255, 255)); font-size: 14px;&quot;&gt;&lt;b style=&quot;&quot;&gt;VPC(Puclic subnet)&lt;/b&gt;&lt;/font&gt;" style="fillColor=none;strokeColor=light-dark(#5A6C86, #b17dff);verticalAlign=top;fontStyle=0;fontColor=#5A6C86;whiteSpace=wrap;html=1;container=0;" vertex="1" parent="1">
          <mxGeometry x="41" y="259" width="729" height="513" as="geometry" />
        </mxCell>
        <mxCell id="HB28VMsp4Vt5agekkU91-20" value="" style="sketch=0;points=[[0,0,0],[0.25,0,0],[0.5,0,0],[0.75,0,0],[1,0,0],[0,1,0],[0.25,1,0],[0.5,1,0],[0.75,1,0],[1,1,0],[0,0.25,0],[0,0.5,0],[0,0.75,0],[1,0.25,0],[1,0.5,0],[1,0.75,0]];outlineConnect=0;fontColor=#232F3E;fillColor=#8C4FFF;strokeColor=#ffffff;dashed=0;verticalLabelPosition=bottom;verticalAlign=top;align=center;html=1;fontSize=12;fontStyle=0;aspect=fixed;shape=mxgraph.aws4.resourceIcon;resIcon=mxgraph.aws4.vpc;container=0;" vertex="1" parent="1">
          <mxGeometry x="41" y="259" width="41.08387897945361" height="41.08387897945361" as="geometry" />
        </mxCell>
        <mxCell id="HB28VMsp4Vt5agekkU91-6" value="&lt;span&gt;&lt;font style=&quot;color: light-dark(rgb(239, 240, 243), rgb(255, 255, 255)); font-size: 14px;&quot;&gt;&lt;b style=&quot;&quot;&gt;EC2&lt;/b&gt;&lt;/font&gt;&lt;/span&gt;" style="fillColor=none;strokeColor=light-dark(#5A6C86, #bd5c17);verticalAlign=top;fontStyle=0;fontColor=#5A6C86;whiteSpace=wrap;html=1;container=0;" vertex="1" parent="1">
          <mxGeometry x="88" y="315" width="651" height="400" as="geometry" />
        </mxCell>
        <mxCell id="HB28VMsp4Vt5agekkU91-45" style="edgeStyle=orthogonalEdgeStyle;rounded=0;orthogonalLoop=1;jettySize=auto;html=1;exitX=1;exitY=0.25;exitDx=0;exitDy=0;exitPerimeter=0;" edge="1" parent="1" source="HB28VMsp4Vt5agekkU91-10" target="HB28VMsp4Vt5agekkU91-12">
          <mxGeometry relative="1" as="geometry">
            <mxPoint x="181" y="406" as="sourcePoint" />
            <Array as="points">
              <mxPoint x="379" y="407" />
              <mxPoint x="379" y="407" />
            </Array>
          </mxGeometry>
        </mxCell>
        <mxCell id="HB28VMsp4Vt5agekkU91-47" value="&lt;font&gt;Config&lt;/font&gt;&lt;font&gt; Web Server&lt;/font&gt;" style="edgeLabel;html=1;align=center;verticalAlign=middle;resizable=0;points=[];fontSize=16;" vertex="1" connectable="0" parent="HB28VMsp4Vt5agekkU91-45">
          <mxGeometry x="-0.009" y="1" relative="1" as="geometry">
            <mxPoint as="offset" />
          </mxGeometry>
        </mxCell>
        <mxCell id="HB28VMsp4Vt5agekkU91-10" value="AWS Cloud9" style="sketch=0;points=[[0,0,0],[0.25,0,0],[0.5,0,0],[0.75,0,0],[1,0,0],[0,1,0],[0.25,1,0],[0.5,1,0],[0.75,1,0],[1,1,0],[0,0.25,0],[0,0.5,0],[0,0.75,0],[1,0.25,0],[1,0.5,0],[1,0.75,0]];outlineConnect=0;fontColor=#232F3E;fillColor=light-dark(#C925D1,#1472A3);strokeColor=#ffffff;dashed=0;verticalLabelPosition=bottom;verticalAlign=top;align=center;html=1;fontSize=12;fontStyle=0;aspect=fixed;shape=mxgraph.aws4.resourceIcon;resIcon=mxgraph.aws4.cloud9;container=0;" vertex="1" parent="1">
          <mxGeometry x="194.00000000000006" y="467" width="59" height="59" as="geometry" />
        </mxCell>
        <mxCell id="HB28VMsp4Vt5agekkU91-12" value="&lt;font style=&quot;font-size: 14px;&quot;&gt;Apache&lt;/font&gt;&lt;br&gt;&lt;div&gt;&lt;font style=&quot;font-size: 14px;&quot;&gt;(Web Server xủ lý request)&lt;/font&gt;&lt;/div&gt;" style="dashed=0;outlineConnect=0;html=1;align=center;labelPosition=center;verticalLabelPosition=bottom;verticalAlign=top;shape=mxgraph.webicons.apache;gradientColor=#DFDEDE;container=0;" vertex="1" parent="1">
          <mxGeometry x="571" y="398" width="78" height="75" as="geometry" />
        </mxCell>
        <mxCell id="HB28VMsp4Vt5agekkU91-13" value="ClouldWatch Agent" style="sketch=0;outlineConnect=0;fontColor=#232F3E;gradientColor=none;fillColor=#E7157B;strokeColor=none;dashed=0;verticalLabelPosition=bottom;verticalAlign=top;align=center;html=1;fontSize=12;fontStyle=0;aspect=fixed;pointerEvents=1;shape=mxgraph.aws4.event_time_based;container=0;" vertex="1" parent="1">
          <mxGeometry x="344" y="609" width="78" height="78" as="geometry" />
        </mxCell>
        <mxCell id="HB28VMsp4Vt5agekkU91-27" style="edgeStyle=orthogonalEdgeStyle;rounded=0;orthogonalLoop=1;jettySize=auto;html=1;" edge="1" parent="1" source="HB28VMsp4Vt5agekkU91-8" target="HB28VMsp4Vt5agekkU91-10">
          <mxGeometry relative="1" as="geometry">
            <Array as="points">
              <mxPoint x="110" y="399" />
              <mxPoint x="224" y="399" />
            </Array>
          </mxGeometry>
        </mxCell>
        <mxCell id="HB28VMsp4Vt5agekkU91-67" value="&amp;nbsp;" style="edgeLabel;html=1;align=center;verticalAlign=middle;resizable=0;points=[];" vertex="1" connectable="0" parent="HB28VMsp4Vt5agekkU91-27">
          <mxGeometry x="-0.1347" y="-5" relative="1" as="geometry">
            <mxPoint x="1" as="offset" />
          </mxGeometry>
        </mxCell>
        <mxCell id="HB28VMsp4Vt5agekkU91-68" value="Vào IDE để config" style="edgeLabel;html=1;align=center;verticalAlign=middle;resizable=0;points=[];fontSize=13;" vertex="1" connectable="0" parent="HB28VMsp4Vt5agekkU91-27">
          <mxGeometry x="-0.0817" y="-4" relative="1" as="geometry">
            <mxPoint x="-5" y="-3" as="offset" />
          </mxGeometry>
        </mxCell>
        <mxCell id="HB28VMsp4Vt5agekkU91-28" style="edgeStyle=orthogonalEdgeStyle;rounded=0;orthogonalLoop=1;jettySize=auto;html=1;exitX=1;exitY=0.5;exitDx=0;exitDy=0;" edge="1" parent="1" source="HB28VMsp4Vt5agekkU91-8" target="HB28VMsp4Vt5agekkU91-12">
          <mxGeometry relative="1" as="geometry">
            <Array as="points">
              <mxPoint x="132" y="369" />
              <mxPoint x="610" y="369" />
            </Array>
          </mxGeometry>
        </mxCell>
        <mxCell id="HB28VMsp4Vt5agekkU91-44" value="&lt;span&gt;Yêu cầu tới web server&lt;/span&gt;" style="edgeLabel;html=1;align=center;verticalAlign=middle;resizable=0;points=[];fontSize=17;" vertex="1" connectable="0" parent="HB28VMsp4Vt5agekkU91-28">
          <mxGeometry x="-0.0017" y="1" relative="1" as="geometry">
            <mxPoint as="offset" />
          </mxGeometry>
        </mxCell>
        <mxCell id="HB28VMsp4Vt5agekkU91-37" style="edgeStyle=orthogonalEdgeStyle;rounded=0;orthogonalLoop=1;jettySize=auto;html=1;" edge="1" parent="1" source="HB28VMsp4Vt5agekkU91-12" target="HB28VMsp4Vt5agekkU91-13">
          <mxGeometry relative="1" as="geometry">
            <Array as="points">
              <mxPoint x="622" y="648" />
            </Array>
          </mxGeometry>
        </mxCell>
        <mxCell id="HB28VMsp4Vt5agekkU91-40" value="&lt;span&gt;ClouldWatch Agent Lấy data log&lt;/span&gt;" style="edgeLabel;html=1;align=center;verticalAlign=middle;resizable=0;points=[];labelBackgroundColor=default;container=0;fontSize=16;" vertex="1" connectable="0" parent="HB28VMsp4Vt5agekkU91-37">
          <mxGeometry x="-0.0158" y="1" relative="1" as="geometry">
            <mxPoint x="-18" y="-72" as="offset" />
          </mxGeometry>
        </mxCell>
        <mxCell id="HB28VMsp4Vt5agekkU91-8" value="" style="fillColor=light-dark(#EFF0F3,#FFFFFF);strokeColor=none;dashed=0;verticalAlign=top;fontStyle=0;fontColor=#232F3D;whiteSpace=wrap;html=1;gradientColor=none;container=0;" vertex="1" parent="1">
          <mxGeometry x="89.00000000000003" y="316" width="43.00000000000001" height="43" as="geometry" />
        </mxCell>
        <mxCell id="HB28VMsp4Vt5agekkU91-7" value="" style="outlineConnect=0;dashed=0;verticalLabelPosition=bottom;verticalAlign=top;align=center;html=1;shape=mxgraph.aws3.ec2;fillColor=#F58534;gradientColor=none;strokeColor=none;labelBackgroundColor=none;textShadow=1;labelBorderColor=none;container=0;" vertex="1" parent="1">
          <mxGeometry x="94.50126984126987" y="318.04761904761904" width="32.00428571428572" height="38.904761904761905" as="geometry" />
        </mxCell>
        <mxCell id="HB28VMsp4Vt5agekkU91-41" style="edgeStyle=orthogonalEdgeStyle;rounded=0;orthogonalLoop=1;jettySize=auto;html=1;" edge="1" parent="1" source="HB28VMsp4Vt5agekkU91-13" target="HB28VMsp4Vt5agekkU91-12">
          <mxGeometry relative="1" as="geometry">
            <Array as="points">
              <mxPoint x="381" y="437" />
            </Array>
          </mxGeometry>
        </mxCell>
        <mxCell id="HB28VMsp4Vt5agekkU91-42" value="&lt;span&gt;Theo dõi log&lt;/span&gt;" style="edgeLabel;html=1;align=center;verticalAlign=middle;resizable=0;points=[];fontSize=17;" vertex="1" connectable="0" parent="HB28VMsp4Vt5agekkU91-41">
          <mxGeometry x="-0.402" y="-2" relative="1" as="geometry">
            <mxPoint y="-4" as="offset" />
          </mxGeometry>
        </mxCell>
        <mxCell id="HB28VMsp4Vt5agekkU91-48" style="edgeStyle=orthogonalEdgeStyle;rounded=0;orthogonalLoop=1;jettySize=auto;html=1;" edge="1" parent="1" source="HB28VMsp4Vt5agekkU91-10" target="HB28VMsp4Vt5agekkU91-13">
          <mxGeometry relative="1" as="geometry">
            <mxPoint x="226" y="656" as="targetPoint" />
            <Array as="points">
              <mxPoint x="113" y="497" />
              <mxPoint x="113" y="657" />
            </Array>
          </mxGeometry>
        </mxCell>
        <mxCell id="HB28VMsp4Vt5agekkU91-49" value="Config ClouldWatch Agent" style="edgeLabel;html=1;align=center;verticalAlign=middle;resizable=0;points=[];fontSize=17;" vertex="1" connectable="0" parent="HB28VMsp4Vt5agekkU91-48">
          <mxGeometry x="-0.0001" y="-2" relative="1" as="geometry">
            <mxPoint x="107" y="6" as="offset" />
          </mxGeometry>
        </mxCell>
        <mxCell id="HB28VMsp4Vt5agekkU91-51" style="edgeStyle=orthogonalEdgeStyle;rounded=0;orthogonalLoop=1;jettySize=auto;html=1;entryX=0.048;entryY=0.62;entryDx=0;entryDy=0;entryPerimeter=0;" edge="1" parent="1" source="HB28VMsp4Vt5agekkU91-13" target="HB28VMsp4Vt5agekkU91-33">
          <mxGeometry relative="1" as="geometry">
            <Array as="points">
              <mxPoint x="722" y="668" />
              <mxPoint x="722" y="431" />
            </Array>
          </mxGeometry>
        </mxCell>
        <mxCell id="HB28VMsp4Vt5agekkU91-52" value="&lt;span&gt;Gửi data log tới Log Group&lt;/span&gt;" style="edgeLabel;html=1;align=center;verticalAlign=middle;resizable=0;points=[];fontSize=16;" vertex="1" connectable="0" parent="HB28VMsp4Vt5agekkU91-51">
          <mxGeometry x="-0.2914" y="3" relative="1" as="geometry">
            <mxPoint x="-117" y="3" as="offset" />
          </mxGeometry>
        </mxCell>
        <mxCell id="HB28VMsp4Vt5agekkU91-61" value="&lt;font style=&quot;font-size: 14px; color: light-dark(rgb(239, 240, 243), rgb(255, 255, 255));&quot;&gt;&lt;b&gt;Amazon S3&lt;/b&gt;&lt;/font&gt;" style="sketch=0;points=[[0,0,0],[0.25,0,0],[0.5,0,0],[0.75,0,0],[1,0,0],[0,1,0],[0.25,1,0],[0.5,1,0],[0.75,1,0],[1,1,0],[0,0.25,0],[0,0.5,0],[0,0.75,0],[1,0.25,0],[1,0.5,0],[1,0.75,0]];outlineConnect=0;fontColor=#232F3E;fillColor=light-dark(#7AA116,#86B40B);strokeColor=#ffffff;dashed=0;verticalLabelPosition=bottom;verticalAlign=top;align=center;html=1;fontSize=12;fontStyle=0;aspect=fixed;shape=mxgraph.aws4.resourceIcon;resIcon=mxgraph.aws4.s3;" vertex="1" parent="1">
          <mxGeometry x="184.5" y="795" width="78" height="78" as="geometry" />
        </mxCell>
        <mxCell id="HB28VMsp4Vt5agekkU91-69" style="edgeStyle=orthogonalEdgeStyle;rounded=0;orthogonalLoop=1;jettySize=auto;html=1;entryX=0.5;entryY=0;entryDx=0;entryDy=0;entryPerimeter=0;" edge="1" parent="1" source="HB28VMsp4Vt5agekkU91-10" target="HB28VMsp4Vt5agekkU91-61">
          <mxGeometry relative="1" as="geometry" />
        </mxCell>
        <mxCell id="HB28VMsp4Vt5agekkU91-70" value="&lt;font&gt;Write&lt;/font&gt;" style="edgeLabel;html=1;align=center;verticalAlign=middle;resizable=0;points=[];fontSize=17;" vertex="1" connectable="0" parent="HB28VMsp4Vt5agekkU91-69">
          <mxGeometry x="-0.4468" y="-1" relative="1" as="geometry">
            <mxPoint as="offset" />
          </mxGeometry>
        </mxCell>
        <mxCell id="HB28VMsp4Vt5agekkU91-74" style="edgeStyle=orthogonalEdgeStyle;rounded=0;orthogonalLoop=1;jettySize=auto;html=1;exitX=0;exitY=0.75;exitDx=0;exitDy=0;exitPerimeter=0;entryX=1;entryY=0.75;entryDx=0;entryDy=0;entryPerimeter=0;" edge="1" parent="1" source="HB28VMsp4Vt5agekkU91-71" target="HB28VMsp4Vt5agekkU91-61">
          <mxGeometry relative="1" as="geometry">
            <Array as="points">
              <mxPoint x="760" y="854" />
              <mxPoint x="689" y="854" />
            </Array>
          </mxGeometry>
        </mxCell>
        <mxCell id="HB28VMsp4Vt5agekkU91-77" value="&lt;font&gt;&lt;b&gt;Allow access&lt;/b&gt;&lt;/font&gt;" style="edgeLabel;html=1;align=center;verticalAlign=middle;resizable=0;points=[];fontSize=17;" vertex="1" connectable="0" parent="HB28VMsp4Vt5agekkU91-74">
          <mxGeometry x="-0.899" y="-1" relative="1" as="geometry">
            <mxPoint x="-241" y="601" as="offset" />
          </mxGeometry>
        </mxCell>
        <mxCell id="HB28VMsp4Vt5agekkU91-82" value="&lt;b style=&quot;font-size: 17px;&quot;&gt;Allow access&lt;/b&gt;" style="edgeLabel;html=1;align=center;verticalAlign=middle;resizable=0;points=[];" vertex="1" connectable="0" parent="1">
          <mxGeometry x="490" y="855" as="geometry" />
        </mxCell>
      </root>
    </mxGraphModel>
  </diagram>
</mxfile>
